<?xml version="1.0" standalone="no"?>
<!DOCTYPE svg PUBLIC "-//W3C//DTD SVG 20010904//EN"
 "http://www.w3.org/TR/2001/REC-SVG-20010904/DTD/svg10.dtd">
<svg version="1.0" xmlns="http://www.w3.org/2000/svg"
 width="1200.000000pt" height="1200.000000pt" viewBox="0 0 1200.000000 1200.000000"
 preserveAspectRatio="xMidYMid meet">
<metadata>
Created by potrace 1.14, written by Peter Selinger 2001-2017
</metadata>
<g transform="translate(0.000000,1200.000000) scale(0.100000,-0.100000)"
fill="#000000" stroke="none">
<path d="M5645 10639 c-2267 -136 -4128 -1880 -4414 -4137 -145 -1138 128
-2286 769 -3244 642 -958 1640 -1663 2756 -1946 1283 -327 2628 -110 3739 601
287 184 524 376 786 637 200 200 298 311 444 505 866 1152 1160 2626 803 4030
-82 325 -180 588 -338 910 -359 734 -895 1354 -1580 1827 -244 168 -626 372
-910 486 -645 258 -1356 373 -2055 331z m339 -795 l106 -76 0 -214 0 -214 205
0 c205 0 206 0 230 -25 l25 -24 0 -226 0 -225 114 0 c107 0 117 -2 143 -24
l28 -24 3 -236 3 -236 65 0 64 0 0 -160 0 -160 68 0 c76 0 131 -21 176 -66 55
-56 56 -59 56 -493 1 -245 5 -403 11 -406 13 -8 1468 -325 1494 -325 35 0 98
-43 130 -88 l30 -44 3 -1629 2 -1629 130 0 130 0 0 -205 0 -205 -3220 0 -3220
0 0 205 0 205 130 0 130 0 2 1629 3 1629 30 44 c24 33 50 53 120 89 50 25 286
164 525 309 239 145 550 333 692 418 l256 154 4 132 c3 125 5 135 31 174 45
68 94 95 187 100 l80 5 2 156 3 156 93 3 92 3 0 224 c0 143 4 233 11 248 17
37 50 47 159 47 l100 0 0 227 c0 299 -24 273 252 273 l208 0 0 290 c0 160 2
290 4 290 3 0 52 -34 110 -76z"/>
<path d="M5567 9164 c-4 -4 -7 -61 -7 -126 l0 -118 195 0 196 0 -3 123 -3 122
-186 3 c-102 1 -188 -1 -192 -4z"/>
<path d="M6040 9045 l0 -125 175 0 175 0 0 125 0 125 -175 0 -175 0 0 -125z"/>
<path d="M5270 8555 l0 -125 125 0 126 0 -3 123 -3 122 -122 3 -123 3 0 -126z"/>
<path d="M5630 8555 l0 -125 160 0 161 0 -3 123 -3 122 -157 3 -158 2 0 -125z"/>
<path d="M6040 8555 l0 -125 170 0 170 0 0 125 0 125 -170 0 -170 0 0 -125z"/>
<path d="M6497 8674 c-4 -4 -7 -61 -7 -126 l0 -118 90 0 91 0 -3 123 -3 122
-80 3 c-45 1 -84 0 -88 -4z"/>
<path d="M5080 8130 l0 -80 220 0 220 0 0 80 0 80 -220 0 -220 0 0 -80z"/>
<path d="M5630 8130 l0 -80 160 0 160 0 0 80 0 80 -160 0 -160 0 0 -80z"/>
<path d="M6040 8130 l0 -80 170 0 170 0 0 80 0 80 -170 0 -170 0 0 -80z"/>
<path d="M6490 8130 l0 -80 175 0 175 0 0 80 0 80 -175 0 -175 0 0 -80z"/>
<path d="M5080 7840 l0 -80 220 0 220 0 0 80 0 80 -220 0 -220 0 0 -80z"/>
<path d="M5630 7840 l0 -80 160 0 160 0 0 80 0 80 -160 0 -160 0 0 -80z"/>
<path d="M6040 7840 l0 -80 170 0 170 0 0 80 0 80 -170 0 -170 0 0 -80z"/>
<path d="M6490 7840 l0 -80 175 0 175 0 0 80 0 80 -175 0 -175 0 0 -80z"/>
<path d="M5443 7576 l-31 -63 -63 -7 c-35 -4 -67 -10 -72 -13 -5 -3 15 -26 44
-52 l52 -46 -11 -60 c-5 -33 -8 -62 -5 -65 3 -3 31 9 64 27 l59 32 66 -29 c36
-17 67 -30 68 -30 2 0 -4 30 -12 67 l-15 66 50 48 c54 52 52 58 -15 60 -66 2
-81 12 -115 71 l-33 58 -31 -64z"/>
<path d="M4975 7572 c-30 -56 -31 -57 -85 -65 -88 -13 -88 -13 -31 -65 l52
-47 -9 -60 c-6 -33 -8 -62 -6 -65 3 -2 31 10 63 28 l59 32 66 -30 c73 -33 73
-33 54 50 l-12 51 49 49 c54 55 57 52 -47 65 -45 6 -49 9 -78 61 -17 29 -35
54 -38 54 -4 0 -20 -26 -37 -58z"/>
<path d="M5915 7572 l-30 -57 -65 -9 c-36 -5 -67 -11 -70 -13 -3 -3 18 -26 47
-52 l52 -46 -11 -58 c-6 -32 -8 -60 -5 -63 3 -3 32 8 65 25 l61 31 62 -30 c35
-16 64 -28 66 -26 2 2 -2 31 -10 64 l-14 61 48 47 c53 52 51 64 -13 64 -59 0
-84 15 -115 69 -15 28 -30 51 -33 51 -3 0 -18 -26 -35 -58z"/>
<path d="M6375 7572 c-30 -56 -31 -57 -85 -65 -90 -13 -90 -14 -32 -65 l53
-47 -11 -58 c-6 -33 -9 -61 -7 -64 3 -2 32 9 65 26 l60 30 64 -28 c35 -16 64
-28 66 -26 2 2 -2 30 -9 64 l-13 61 48 49 c52 52 49 61 -19 61 -56 0 -81 16
-111 69 -15 28 -30 51 -33 51 -3 0 -19 -26 -36 -58z"/>
<path d="M6855 7573 c-29 -56 -32 -58 -80 -66 -105 -16 -103 -12 -40 -64 36
-30 54 -51 51 -62 -10 -33 -18 -111 -12 -111 4 0 33 14 66 30 l60 30 61 -31
c34 -16 63 -28 65 -26 3 3 -1 32 -9 65 l-14 61 48 47 c54 53 51 63 -16 64 -66
0 -79 8 -110 66 -16 30 -32 54 -35 54 -3 0 -18 -26 -35 -57z"/>
<path d="M4098 7062 c-302 -185 -548 -340 -548 -344 0 -5 248 -8 550 -8 l550
0 0 345 c0 190 -1 345 -2 344 -2 0 -249 -152 -550 -337z"/>
<path d="M5218 7153 l-48 -4 0 -95 0 -94 -110 0 -110 0 0 95 0 95 -55 0 -55 0
0 -255 0 -255 55 0 55 0 0 110 0 110 110 0 110 0 0 -110 0 -110 60 0 60 0 -2
257 c-2 161 -7 257 -13 258 -5 1 -31 0 -57 -2z"/>
<path d="M5475 7136 c-56 -25 -110 -81 -133 -135 -8 -20 -15 -66 -15 -102 -2
-166 126 -280 298 -267 75 7 132 35 179 90 93 108 85 263 -17 363 -60 58 -105
75 -198 75 -46 0 -78 -7 -114 -24z m210 -94 c16 -10 40 -38 53 -62 60 -116
-15 -250 -140 -250 -82 0 -137 42 -159 123 -22 83 29 183 107 207 38 12 101 4
139 -18z"/>
<path d="M5860 7105 l0 -45 95 0 95 0 0 -210 0 -210 55 0 55 0 0 210 0 210 95
0 95 0 0 45 0 45 -245 0 -245 0 0 -45z"/>
<path d="M6360 6895 l0 -255 176 0 175 0 -3 48 -3 47 -117 3 -118 3 0 59 0 60
105 0 105 0 0 50 0 50 -105 0 -105 0 0 50 0 50 120 0 120 0 0 45 0 45 -175 0
-175 0 0 -255z"/>
<path d="M6750 6895 l0 -255 181 0 180 0 -3 48 -3 47 -122 3 -123 3 0 204 0
205 -55 0 -55 0 0 -255z"/>
<path d="M4880 6290 l0 -160 263 2 262 3 3 158 3 157 -266 0 -265 0 0 -160z"/>
<path d="M5562 6293 l3 -158 743 -3 742 -2 0 160 0 160 -745 0 -746 0 3 -157z"/>
<path d="M7290 6280 l0 -120 110 0 110 0 0 120 0 120 -110 0 -110 0 0 -120z"/>
<path d="M8004 6387 c-2 -7 -3 -60 -2 -118 l3 -104 358 -3 357 -2 0 120 0 120
-355 0 c-285 0 -357 -3 -361 -13z"/>
<path d="M3172 6263 l3 -118 158 -3 157 -3 0 121 0 120 -160 0 -161 0 3 -117z"/>
<path d="M3562 6263 l3 -118 123 -3 122 -3 0 121 0 120 -125 0 -126 0 3 -117z"/>
<path d="M4260 4930 l0 -1450 125 0 125 0 0 1450 0 1450 -125 0 -125 0 0
-1450z"/>
<path d="M7290 5835 l0 -115 110 0 110 0 0 115 0 115 -110 0 -110 0 0 -115z"/>
<path d="M8000 5835 l0 -115 360 0 360 0 0 115 0 115 -360 0 -360 0 0 -115z"/>
<path d="M3177 5933 c-4 -3 -7 -57 -7 -120 l0 -113 160 0 160 0 0 120 0 120
-153 0 c-85 0 -157 -3 -160 -7z"/>
<path d="M3567 5934 c-4 -4 -7 -58 -7 -121 l0 -113 125 0 126 0 -3 118 -3 117
-116 3 c-63 1 -118 -1 -122 -4z"/>
<path d="M4880 5730 l0 -160 265 0 265 0 0 160 0 160 -265 0 -265 0 0 -160z"/>
<path d="M5560 5730 l0 -160 745 0 745 0 0 160 0 160 -745 0 -745 0 0 -160z"/>
<path d="M7290 5380 l0 -120 110 0 110 0 0 120 0 120 -110 0 -110 0 0 -120z"/>
<path d="M8007 5493 c-4 -3 -7 -57 -7 -120 l0 -113 360 0 360 0 0 120 0 120
-353 0 c-195 0 -357 -3 -360 -7z"/>
<path d="M3170 5360 l0 -120 160 0 160 0 0 120 0 120 -160 0 -160 0 0 -120z"/>
<path d="M3562 5363 l3 -118 123 -3 122 -3 0 121 0 120 -125 0 -126 0 3 -117z"/>
<path d="M4880 5185 l0 -155 265 0 265 0 0 155 0 155 -265 0 -265 0 0 -155z"/>
<path d="M5560 5185 l0 -154 253 -3 c138 -2 474 -2 745 0 l492 2 0 155 0 155
-745 0 -745 0 0 -155z"/>
<path d="M7292 4938 l3 -123 108 -3 107 -3 0 126 0 125 -110 0 -111 0 3 -122z"/>
<path d="M8004 5047 c-2 -7 -3 -62 -2 -123 l3 -109 358 -3 357 -2 0 125 0 125
-355 0 c-285 0 -357 -3 -361 -13z"/>
<path d="M3170 4920 l0 -120 160 0 160 0 0 120 0 120 -160 0 -160 0 0 -120z"/>
<path d="M3560 4920 l0 -120 125 0 125 0 0 120 0 120 -125 0 -125 0 0 -120z"/>
<path d="M4880 4620 l0 -160 263 2 262 3 3 158 3 157 -266 0 -265 0 0 -160z"/>
<path d="M5560 4620 l0 -160 745 0 745 0 0 160 0 160 -745 0 -745 0 0 -160z"/>
<path d="M7290 4490 l0 -120 110 0 110 0 0 120 0 120 -110 0 -110 0 0 -120z"/>
<path d="M8002 4493 l3 -118 355 0 355 0 3 118 3 117 -361 0 -361 0 3 -117z"/>
<path d="M3176 4593 c-3 -3 -6 -57 -6 -120 l0 -113 160 0 160 0 0 118 0 119
-154 1 c-84 1 -156 -1 -160 -5z"/>
<path d="M3583 4593 c-22 -4 -23 -8 -23 -119 l0 -114 125 0 125 0 0 114 0 113
-37 7 c-41 6 -154 6 -190 -1z"/>
<path d="M4880 4040 l0 -160 265 0 265 0 0 160 0 160 -265 0 -265 0 0 -160z"/>
<path d="M5560 4040 l0 -160 745 0 745 0 0 160 0 160 -745 0 -745 0 0 -160z"/>
<path d="M7302 4152 c-8 -2 -12 -37 -12 -118 l0 -114 110 0 110 0 0 118 0 118
-98 0 c-54 0 -103 -1 -110 -4z"/>
<path d="M8006 4153 c-3 -4 -6 -57 -6 -120 l0 -113 360 0 361 0 -3 118 -3 117
-351 2 c-193 1 -354 -1 -358 -4z"/>
<path d="M3170 4020 l0 -120 160 0 160 0 0 120 0 120 -160 0 -160 0 0 -120z"/>
<path d="M3567 4133 c-4 -3 -7 -57 -7 -120 l0 -113 125 0 125 0 0 120 0 120
-118 0 c-65 0 -122 -3 -125 -7z"/>
<path d="M7290 3590 l0 -120 110 0 110 0 0 120 0 120 -110 0 -110 0 0 -120z"/>
<path d="M8002 3593 l3 -118 358 -3 357 -2 0 120 0 120 -360 0 -361 0 3 -117z"/>
<path d="M3170 3575 l0 -115 160 0 160 0 0 115 0 115 -160 0 -160 0 0 -115z"/>
<path d="M3560 3575 l0 -115 125 0 125 0 0 115 0 115 -125 0 -125 0 0 -115z"/>
<path d="M4880 3480 l0 -160 265 0 266 0 -3 158 -3 157 -262 3 -263 2 0 -160z"/>
<path d="M5567 3633 c-4 -3 -7 -75 -7 -160 l0 -153 745 0 746 0 -3 158 -3 157
-736 3 c-404 1 -739 -1 -742 -5z"/>
</g>
</svg>
